# File created by Blade
# Date/Time:  Mon Sep 22 17:23:16 2014
# Frame Rate: 120.000 fps
#------------------------------------------------------
:FULLY-SPECIFIED
:DEGREES
2571
root 2.393580 37.428592 1.230932 -13.861361 -11.105131 -13.012536
RightUpLeg -43.201899 -26.346548 -26.013257
RightLeg 114.465214 -0.000000 -0.000000
RightFoot 14.423719 -17.377789 9.414693
RightToeBase 0.975386 -0.000000 -0.000000
LeftUpLeg 19.058672 -2.350921 1.911472
LeftLeg 13.319857 -0.000000 -0.000000
LeftFoot -21.267181 23.806638 -10.887261
LeftToeBase 0.713203 -0.000000 -0.000000
Spine 16.412830 -2.090679 9.301635
RightShoulder 7.555973 -30.285062 -12.513535
RightArm 28.841517 -29.442112 55.003642
RightForeArm -189.440586 -0.000000 99.731213
RightHand 95.529678 -0.000000 -168.851920
RightHandThumb1 -24.326973 -0.000000 -32.862282
LeftShoulder -15.071045 30.486837 7.328823
LeftArm 63.436345 -14.684948 -41.779517
LeftForeArm 42.830039 0.000000 92.662407
LeftHand -22.575618 -0.000000 -8.985464
LeftHandThumb1 -26.253704 0.000000 33.147579
Head 9.160027 10.717456 16.861142
2572
root 2.400914 37.423289 1.249107 -13.916674 -11.077866 -12.937316
RightUpLeg -43.238201 -26.476292 -25.975419
RightLeg 114.496495 -0.000000 -0.000000
RightFoot 14.189401 -17.443134 9.808445
RightToeBase 1.419159 -0.000000 -0.000000
LeftUpLeg 19.149454 -2.282511 1.845255
LeftLeg 13.259020 -0.000000 -0.000000
LeftFoot -21.223899 23.760882 -10.840669
LeftToeBase 0.626435 -0.000000 -0.000000
Spine 16.434517 -2.104997 9.259723
RightShoulder 7.526706 -30.271647 -12.488804
RightArm 28.790601 -29.414567 55.066672
RightForeArm -189.315965 -0.000000 99.727897
RightHand 95.532590 -0.000000 -168.978257
RightHandThumb1 -24.326973 -0.000000 -32.862282
LeftShoulder -15.051678 30.513655 7.329197
LeftArm 63.406053 -14.706715 -41.760305
LeftForeArm 42.787117 0.000000 92.697568
LeftHand -22.623499 -0.000000 -9.094279
LeftHandThumb1 -26.253704 0.000000 33.147579
Head 9.130367 10.709212 16.821477
2573
root 2.408487 37.418391 1.268517 -13.980091 -11.052645 -12.863318
RightUpLeg -43.268005 -26.647425 -25.927985
RightLeg 114.517271 -0.000000 -0.000000
RightFoot 14.306544 -17.451360 9.358911
RightToeBase 1.078306 -0.000000 -0.000000
LeftUpLeg 19.256118 -2.259332 1.753806
LeftLeg 13.188216 -0.000000 -0.000000
LeftFoot -21.197719 23.775524 -10.815483
LeftToeBase 0.642446 -0.000000 -0.000000
Spine 16.458480 -2.119963 9.227836
RightShoulder 7.512470 -30.325088 -12.488038
RightArm 28.804852 -29.347730 55.096470
RightForeArm -189.213015 0.000000 99.728587
RightHand 95.563890 -0.000000 -169.033484
RightHandThumb1 -24.326973 -0.000000 -32.862282
LeftShoulder -15.030305 30.556122 7.305172
LeftArm 63.386481 -14.744841 -41.738828
LeftForeArm 42.760895 0.000000 92.723921
LeftHand -22.609005 -0.000000 -9.099754
LeftHandThumb1 -26.253704 0.000000 33.147579
Head 9.125482 10.693037 16.786550
2574
root 2.414523 37.413764 1.288784 -14.033137 -11.009486 -12.817056
RightUpLeg -43.282147 -26.816738 -25.911267
RightLeg 114.513134 -0.000000 -0.000000
RightFoot 14.141502 -17.501854 9.893321
RightToeBase 1.204759 -0.000000 -0.000000
LeftUpLeg 19.358558 -2.272200 1.681226
LeftLeg 13.116287 -0.000000 -0.000000
LeftFoot -21.199331 23.789581 -10.820172
LeftToeBase 0.656019 -0.000000 -0.000000
Spine 16.475486 -2.174991 9.219526
RightShoulder 7.500327 -30.335684 -12.496499
RightArm 28.807692 -29.316486 55.125346
RightForeArm -189.087316 0.000000 99.732856
RightHand 95.572540 0.000000 -169.075304
RightHandThumb1 -24.326973 -0.000000 -32.862282
LeftShoulder -15.054380 30.574959 7.251666
LeftArm 63.373625 -14.757568 -41.699190
LeftForeArm 42.718952 -0.000000 92.736993
LeftHand -22.617547 -0.000000 -9.066694
LeftHandThumb1 -26.253704 0.000000 33.147579
Head 9.093674 10.750079 16.709577
2575
root 2.420745 37.409473 1.313186 -14.132202 -10.972809 -12.779623
RightUpLeg -43.245963 -27.002144 -25.902999
RightLeg 114.496404 -0.000000 -0.000000
RightFoot 14.151172 -17.499504 9.883198
RightToeBase 0.993789 -0.000000 -0.000000
LeftUpLeg 19.520625 -2.279398 1.620379
LeftLeg 13.034443 -0.000000 -0.000000
LeftFoot -21.181821 23.786617 -10.813561
LeftToeBase 0.631331 -0.000000 -0.000000
Spine 16.544769 -2.238916 9.231622
RightShoulder 7.499951 -30.342475 -12.540395
RightArm 28.828621 -29.286956 55.149306
RightForeArm -188.969807 -0.000000 99.739402
RightHand 95.583812 0.000000 -169.189687
RightHandThumb1 -24.326973 -0.000000 -32.862282
LeftShoulder -15.057115 30.583920 7.206963
LeftArm 63.336725 -14.771329 -41.675281
LeftForeArm 42.672523 -0.000000 92.767913
LeftHand -22.615809 -0.000000 -9.040382
LeftHandThumb1 -26.253704 0.000000 33.147579
Head 9.067267 10.881633 16.668842
2576
root 2.422073 37.408361 1.336192 -14.219261 -10.920306 -12.799144
RightUpLeg -43.187444 -27.214717 -25.844856
RightLeg 114.469840 -0.000000 -0.000000
RightFoot 14.279975 -17.388948 9.634283
RightToeBase 0.782605 -0.000000 -0.000000
LeftUpLeg 19.668949 -2.369956 1.588217
LeftLeg 12.977710 -0.000000 -0.000000
LeftFoot -21.188271 23.876768 -10.803941
LeftToeBase 0.619348 -0.000000 -0.000000
Spine 16.606919 -2.319086 9.294584
RightShoulder 7.488215 -30.352019 -12.563969
RightArm 28.877007 -29.263648 55.133916
RightForeArm -188.845785 -0.000000 99.716607
RightHand 95.560005 -0.000000 -169.383094
RightHandThumb1 -24.326973 -0.000000 -32.862282
LeftShoulder -15.062765 30.585541 7.155393
LeftArm 63.318477 -14.769513 -41.638044
LeftForeArm 42.615874 -0.000000 92.780530
LeftHand -22.624866 0.000000 -8.993524
LeftHandThumb1 -26.253704 0.000000 33.147579
Head 9.047531 10.928871 16.567272
